<svg xmlns="http://www.w3.org/2000/svg" xmlns:xlink="http://www.w3.org/1999/xlink" width="817" zoomAndPan="magnify" viewBox="0 0 612.75 347.249998" height="463" preserveAspectRatio="xMidYMid meet" version="1.0"><defs><g/></defs><g fill="#373333" fill-opacity="1"><g transform="translate(58.135526, 149.029331)"><g><path d="M 79.8125 -41.359375 C 79.8125 -32.640625 78.234375 -25.097656 75.078125 -18.734375 C 71.929688 -12.378906 67.613281 -7.476562 62.125 -4.03125 C 56.632812 -0.59375 50.359375 1.125 43.296875 1.125 C 36.242188 1.125 29.96875 -0.59375 24.46875 -4.03125 C 18.976562 -7.476562 14.65625 -12.378906 11.5 -18.734375 C 8.351562 -25.097656 6.78125 -32.640625 6.78125 -41.359375 C 6.78125 -50.085938 8.351562 -57.628906 11.5 -63.984375 C 14.65625 -70.335938 18.976562 -75.238281 24.46875 -78.6875 C 29.96875 -82.132812 36.242188 -83.859375 43.296875 -83.859375 C 50.359375 -83.859375 56.632812 -82.132812 62.125 -78.6875 C 67.613281 -75.238281 71.929688 -70.335938 75.078125 -63.984375 C 78.234375 -57.628906 79.8125 -50.085938 79.8125 -41.359375 Z M 70.125 -41.359375 C 70.125 -48.523438 68.929688 -54.570312 66.546875 -59.5 C 64.160156 -64.425781 60.941406 -68.15625 56.890625 -70.6875 C 52.835938 -73.21875 48.304688 -74.484375 43.296875 -74.484375 C 38.296875 -74.484375 33.765625 -73.21875 29.703125 -70.6875 C 25.648438 -68.15625 22.429688 -64.425781 20.046875 -59.5 C 17.671875 -54.570312 16.484375 -48.523438 16.484375 -41.359375 C 16.484375 -34.203125 17.671875 -28.15625 20.046875 -23.21875 C 22.429688 -18.289062 25.648438 -14.5625 29.703125 -12.03125 C 33.765625 -9.5 38.296875 -8.234375 43.296875 -8.234375 C 48.304688 -8.234375 52.835938 -9.5 56.890625 -12.03125 C 60.941406 -14.5625 64.160156 -18.289062 66.546875 -23.21875 C 68.929688 -28.15625 70.125 -34.203125 70.125 -41.359375 Z M 70.125 -41.359375 "/></g></g></g><g fill="#373333" fill-opacity="1"><g transform="translate(144.743888, 149.029331)"><g><path d="M 64.3125 -82.734375 L 74.328125 -82.734375 L 74.328125 -27.953125 C 74.328125 -21.753906 72.859375 -16.460938 69.921875 -12.078125 C 66.984375 -7.691406 63.078125 -4.335938 58.203125 -2.015625 C 53.328125 0.296875 47.984375 1.453125 42.171875 1.453125 C 36.359375 1.453125 31.015625 0.296875 26.140625 -2.015625 C 21.265625 -4.335938 17.359375 -7.691406 14.421875 -12.078125 C 11.484375 -16.460938 10.015625 -21.753906 10.015625 -27.953125 L 10.015625 -82.734375 L 20.03125 -82.734375 L 20.03125 -27.953125 C 20.03125 -23.640625 21.050781 -19.992188 23.09375 -17.015625 C 25.144531 -14.046875 27.851562 -11.785156 31.21875 -10.234375 C 34.59375 -8.691406 38.242188 -7.921875 42.171875 -7.921875 C 46.097656 -7.921875 49.742188 -8.691406 53.109375 -10.234375 C 56.484375 -11.785156 59.191406 -14.046875 61.234375 -17.015625 C 63.285156 -19.992188 64.3125 -23.640625 64.3125 -27.953125 Z M 64.3125 -82.734375 "/></g></g></g><g fill="#373333" fill-opacity="1"><g transform="translate(229.090085, 149.029331)"><g><path d="M 10.015625 0 L 10.015625 -82.734375 L 37.96875 -82.734375 C 44.4375 -82.734375 49.742188 -81.632812 53.890625 -79.4375 C 58.035156 -77.238281 61.101562 -74.226562 63.09375 -70.40625 C 65.082031 -66.582031 66.078125 -62.234375 66.078125 -57.359375 C 66.078125 -51.867188 64.816406 -47.082031 62.296875 -43 C 59.785156 -38.914062 55.890625 -35.972656 50.609375 -34.171875 L 69.3125 0 L 57.6875 0 L 40.234375 -32.359375 C 39.554688 -32.328125 38.851562 -32.3125 38.125 -32.3125 L 20.03125 -32.3125 L 20.03125 0 Z M 20.03125 -41.359375 L 37.8125 -41.359375 C 44.4375 -41.359375 49.160156 -42.785156 51.984375 -45.640625 C 54.816406 -48.492188 56.234375 -52.398438 56.234375 -57.359375 C 56.234375 -62.335938 54.8125 -66.328125 51.96875 -69.328125 C 49.125 -72.335938 44.347656 -73.84375 37.640625 -73.84375 L 20.03125 -73.84375 Z M 20.03125 -41.359375 "/></g></g></g><g fill="#373333" fill-opacity="1"><g transform="translate(27.966311, 271.445576)"><g><path d="M 91.8125 -1.234375 C 94.59375 -2.453125 97.1875 -3.898438 99.59375 -5.578125 C 102.007812 -7.253906 104.460938 -9.398438 106.953125 -12.015625 C 109.453125 -14.640625 112.132812 -17.851562 115 -21.65625 C 117.863281 -25.46875 121.140625 -30.113281 124.828125 -35.59375 C 130.472656 -43.9375 135.75 -51.015625 140.65625 -56.828125 C 145.5625 -62.640625 150.285156 -67.363281 154.828125 -71 C 159.367188 -74.644531 163.804688 -77.285156 168.140625 -78.921875 C 172.484375 -80.554688 176.984375 -81.375 181.640625 -81.375 C 185.078125 -81.375 188.269531 -80.820312 191.21875 -79.71875 C 194.164062 -78.613281 196.703125 -77.117188 198.828125 -75.234375 C 200.953125 -73.347656 202.628906 -71.078125 203.859375 -68.421875 C 205.085938 -65.765625 205.703125 -62.921875 205.703125 -59.890625 C 205.703125 -58.992188 205.640625 -58.03125 205.515625 -57 C 205.390625 -55.976562 205.222656 -55.054688 205.015625 -54.234375 C 204.816406 -53.421875 204.59375 -52.75 204.34375 -52.21875 C 204.101562 -51.6875 203.859375 -51.421875 203.609375 -51.421875 C 203.285156 -51.421875 203.125 -51.585938 203.125 -51.921875 C 203.125 -52.078125 203.164062 -52.195312 203.25 -52.28125 C 203.65625 -53.425781 203.976562 -54.613281 204.21875 -55.84375 C 204.46875 -57.070312 204.59375 -58.257812 204.59375 -59.40625 C 204.59375 -62.101562 204.019531 -64.597656 202.875 -66.890625 C 201.726562 -69.179688 200.132812 -71.1875 198.09375 -72.90625 C 196.050781 -74.625 193.632812 -75.953125 190.84375 -76.890625 C 188.0625 -77.828125 185.035156 -78.296875 181.765625 -78.296875 C 177.347656 -78.296875 173.007812 -77.5 168.75 -75.90625 C 164.5 -74.3125 160.144531 -71.753906 155.6875 -68.234375 C 151.226562 -64.722656 146.582031 -60.160156 141.75 -54.546875 C 136.925781 -48.941406 131.691406 -42.175781 126.046875 -34.25 C 122.117188 -28.601562 118.742188 -23.957031 115.921875 -20.3125 C 113.097656 -16.664062 110.5 -13.632812 108.125 -11.21875 C 105.75 -8.8125 103.4375 -6.832031 101.1875 -5.28125 C 98.9375 -3.726562 96.382812 -2.253906 93.53125 -0.859375 C 92.132812 -0.117188 90.882812 0.453125 89.78125 0.859375 C 88.675781 1.265625 87.921875 1.46875 87.515625 1.46875 C 87.179688 1.46875 87.015625 1.347656 87.015625 1.109375 C 87.015625 0.941406 87.300781 0.65625 87.875 0.25 C 89.507812 -1.3125 90.984375 -3.09375 92.296875 -5.09375 C 93.609375 -7.09375 94.796875 -9.398438 95.859375 -12.015625 C 96.921875 -14.640625 97.898438 -17.691406 98.796875 -21.171875 C 99.703125 -24.648438 100.519531 -28.640625 101.25 -33.140625 C 102.3125 -39.679688 103.3125 -45.179688 104.25 -49.640625 C 105.195312 -54.097656 106.304688 -57.941406 107.578125 -61.171875 C 108.847656 -64.410156 110.320312 -67.316406 112 -69.890625 C 113.675781 -72.472656 115.78125 -75.195312 118.3125 -78.0625 C 116.351562 -76.582031 114.570312 -74.984375 112.96875 -73.265625 C 111.375 -71.546875 109.84375 -69.539062 108.375 -67.25 C 106.90625 -64.96875 105.410156 -62.332031 103.890625 -59.34375 C 102.378906 -56.351562 100.765625 -52.851562 99.046875 -48.84375 C 96.585938 -43.28125 94.375 -38.535156 92.40625 -34.609375 C 90.445312 -30.679688 88.484375 -27.242188 86.515625 -24.296875 C 84.554688 -21.359375 82.535156 -18.78125 80.453125 -16.5625 C 78.367188 -14.351562 76.015625 -12.1875 73.390625 -10.0625 C 68.234375 -5.894531 62.6875 -2.644531 56.75 -0.3125 C 50.820312 2.019531 45.285156 3.1875 40.140625 3.1875 C 36.453125 3.1875 33.050781 2.632812 29.9375 1.53125 C 26.832031 0.425781 24.15625 -1.144531 21.90625 -3.1875 C 19.65625 -5.238281 17.894531 -7.675781 16.625 -10.5 C 15.363281 -13.320312 14.734375 -16.410156 14.734375 -19.765625 C 14.734375 -26.710938 16.71875 -33.316406 20.6875 -39.578125 C 24.65625 -45.835938 30.316406 -51.300781 37.671875 -55.96875 C 38.410156 -59.894531 40.023438 -63.695312 42.515625 -67.375 C 45.015625 -71.0625 48.003906 -74.316406 51.484375 -77.140625 C 54.960938 -79.960938 58.785156 -82.234375 62.953125 -83.953125 C 67.128906 -85.671875 71.304688 -86.53125 75.484375 -86.53125 C 79.578125 -86.53125 82.828125 -85.40625 85.234375 -83.15625 C 87.648438 -80.90625 88.859375 -77.9375 88.859375 -74.25 C 88.859375 -72.78125 88.632812 -71.347656 88.1875 -69.953125 C 87.738281 -68.566406 86.816406 -66.398438 85.421875 -63.453125 C 84.847656 -62.304688 84.457031 -61.40625 84.25 -60.75 C 84.050781 -60.09375 83.953125 -59.441406 83.953125 -58.796875 C 83.953125 -57.484375 84.441406 -56.394531 85.421875 -55.53125 C 86.398438 -54.675781 87.671875 -54.25 89.234375 -54.25 C 90.210938 -54.25 91.273438 -54.492188 92.421875 -54.984375 C 93.566406 -55.472656 94.691406 -56.101562 95.796875 -56.875 C 96.898438 -57.65625 97.921875 -58.578125 98.859375 -59.640625 C 99.804688 -60.710938 100.601562 -61.820312 101.25 -62.96875 C 101.664062 -63.945312 102.078125 -64.4375 102.484375 -64.4375 C 102.804688 -64.4375 102.96875 -64.269531 102.96875 -63.9375 C 102.96875 -63.613281 102.578125 -62.898438 101.796875 -61.796875 C 101.023438 -60.691406 100.234375 -59.691406 99.421875 -58.796875 C 95.984375 -55.023438 92.460938 -53.140625 88.859375 -53.140625 C 86.398438 -53.140625 84.289062 -54.082031 82.53125 -55.96875 C 80.78125 -57.851562 79.90625 -60.101562 79.90625 -62.71875 C 79.90625 -63.375 79.941406 -63.988281 80.015625 -64.5625 C 80.097656 -65.132812 80.257812 -65.804688 80.5 -66.578125 C 80.75 -67.359375 81.140625 -68.320312 81.671875 -69.46875 C 82.210938 -70.613281 82.929688 -72.128906 83.828125 -74.015625 C 84.722656 -75.804688 85.171875 -77.359375 85.171875 -78.671875 C 85.171875 -80.554688 84.25 -82.128906 82.40625 -83.390625 C 80.570312 -84.660156 78.304688 -85.296875 75.609375 -85.296875 C 71.679688 -85.296875 67.753906 -84.519531 63.828125 -82.96875 C 59.898438 -81.414062 56.253906 -79.328125 52.890625 -76.703125 C 49.535156 -74.085938 46.628906 -71.0625 44.171875 -67.625 C 41.722656 -64.1875 40.007812 -60.585938 39.03125 -56.828125 C 46.226562 -60.921875 53.0625 -62.96875 59.53125 -62.96875 C 65.582031 -62.96875 70.382812 -61.207031 73.9375 -57.6875 C 77.5 -54.164062 79.28125 -49.460938 79.28125 -43.578125 C 79.28125 -39.484375 78.296875 -35.410156 76.328125 -31.359375 C 74.367188 -27.304688 71.8125 -23.664062 68.65625 -20.4375 C 65.507812 -17.207031 61.972656 -14.585938 58.046875 -12.578125 C 54.117188 -10.578125 50.148438 -9.578125 46.140625 -9.578125 C 44.015625 -9.578125 42.070312 -9.941406 40.3125 -10.671875 C 38.550781 -11.410156 36.992188 -12.414062 35.640625 -13.6875 C 34.296875 -14.957031 33.253906 -16.46875 32.515625 -18.21875 C 31.785156 -19.976562 31.421875 -21.882812 31.421875 -23.9375 C 31.421875 -27.039062 32.175781 -30.207031 33.6875 -33.4375 C 35.207031 -36.675781 37.359375 -39.726562 40.140625 -42.59375 C 38.335938 -45.289062 37.4375 -48.441406 37.4375 -52.046875 C 31.875 -47.128906 27.578125 -41.664062 24.546875 -35.65625 C 21.515625 -29.644531 20 -23.691406 20 -17.796875 C 20 -11.660156 21.816406 -6.832031 25.453125 -3.3125 C 29.097656 0.207031 34.070312 1.96875 40.375 1.96875 C 45.289062 1.96875 49.9375 1.066406 54.3125 -0.734375 C 58.6875 -2.535156 63.164062 -5.359375 67.75 -9.203125 C 70.445312 -11.492188 72.984375 -13.90625 75.359375 -16.4375 C 77.734375 -18.976562 80.082031 -21.882812 82.40625 -25.15625 C 84.738281 -28.425781 87.15625 -32.148438 89.65625 -36.328125 C 92.15625 -40.503906 94.875 -45.375 97.8125 -50.9375 C 99.863281 -54.863281 101.726562 -58.28125 103.40625 -61.1875 C 105.082031 -64.09375 106.65625 -66.585938 108.125 -68.671875 C 109.601562 -70.753906 111.035156 -72.550781 112.421875 -74.0625 C 113.816406 -75.582031 115.289062 -76.957031 116.84375 -78.1875 C 117.90625 -79 118.945312 -79.710938 119.96875 -80.328125 C 120.988281 -80.941406 121.664062 -81.25 122 -81.25 C 122.238281 -81.25 122.359375 -81.125 122.359375 -80.875 C 122.359375 -80.800781 122.238281 -80.640625 122 -80.390625 C 120.769531 -79.648438 119.703125 -78.6875 118.796875 -77.5 C 117.898438 -76.320312 117.125 -74.726562 116.46875 -72.71875 C 115.820312 -70.71875 115.25 -68.222656 114.75 -65.234375 C 114.257812 -62.242188 113.769531 -58.582031 113.28125 -54.25 C 112.382812 -46.394531 111.40625 -39.6875 110.34375 -34.125 C 109.28125 -28.5625 107.925781 -23.753906 106.28125 -19.703125 C 104.644531 -15.648438 102.660156 -12.171875 100.328125 -9.265625 C 98.003906 -6.359375 95.164062 -3.679688 91.8125 -1.234375 Z M 40.875 -43.328125 C 41.851562 -44.222656 43.015625 -45.160156 44.359375 -46.140625 C 45.710938 -47.128906 47.082031 -48.007812 48.46875 -48.78125 C 49.863281 -49.5625 51.132812 -50.195312 52.28125 -50.6875 C 53.425781 -51.175781 54.328125 -51.421875 54.984375 -51.421875 C 55.234375 -51.421875 55.359375 -51.300781 55.359375 -51.0625 C 55.359375 -50.726562 55.109375 -50.519531 54.609375 -50.4375 C 51.753906 -49.289062 49.320312 -48.144531 47.3125 -47 C 45.3125 -45.851562 43.367188 -44.34375 41.484375 -42.46875 C 44.265625 -39.195312 48.03125 -37.5625 52.78125 -37.5625 C 59.570312 -37.5625 65.867188 -40.75 71.671875 -47.125 C 72.160156 -47.695312 72.488281 -47.984375 72.65625 -47.984375 C 72.90625 -47.984375 73.03125 -47.863281 73.03125 -47.625 C 73.03125 -47.375 72.722656 -46.878906 72.109375 -46.140625 C 71.492188 -45.410156 70.734375 -44.632812 69.828125 -43.8125 C 67.378906 -41.519531 64.617188 -39.738281 61.546875 -38.46875 C 58.484375 -37.207031 55.519531 -36.578125 52.65625 -36.578125 C 47.738281 -36.578125 43.769531 -38.296875 40.75 -41.734375 C 38.125 -38.953125 36.113281 -36.046875 34.71875 -33.015625 C 33.332031 -29.984375 32.640625 -27.035156 32.640625 -24.171875 C 32.640625 -20.328125 33.828125 -17.132812 36.203125 -14.59375 C 38.578125 -12.0625 41.601562 -10.796875 45.28125 -10.796875 C 48.800781 -10.796875 52.441406 -11.898438 56.203125 -14.109375 C 59.972656 -16.316406 63.410156 -19.140625 66.515625 -22.578125 C 69.628906 -26.015625 72.164062 -29.835938 74.125 -34.046875 C 76.09375 -38.265625 77.078125 -42.378906 77.078125 -46.390625 C 77.078125 -50.890625 75.5 -54.570312 72.34375 -57.4375 C 69.195312 -60.300781 65.128906 -61.734375 60.140625 -61.734375 C 52.859375 -61.734375 45.65625 -58.828125 38.53125 -53.015625 C 38.53125 -50.890625 38.691406 -49.085938 39.015625 -47.609375 C 39.347656 -46.140625 39.96875 -44.710938 40.875 -43.328125 Z M 155.625 -15.34375 C 153.164062 -11.820312 150.8125 -8.875 148.5625 -6.5 C 146.3125 -4.132812 144.019531 -2.234375 141.6875 -0.796875 C 139.363281 0.628906 136.929688 1.648438 134.390625 2.265625 C 131.859375 2.878906 129.035156 3.1875 125.921875 3.1875 C 124.941406 3.1875 124 3.164062 123.09375 3.125 C 122.195312 3.082031 121.15625 3.019531 119.96875 2.9375 C 118.78125 2.863281 117.410156 2.722656 115.859375 2.515625 C 114.304688 2.304688 112.425781 2.082031 110.21875 1.84375 C 109.070312 2.082031 107.863281 2.265625 106.59375 2.390625 C 105.320312 2.515625 104.238281 2.578125 103.34375 2.578125 C 100.882812 2.578125 99.65625 2.128906 99.65625 1.234375 C 99.65625 0.328125 100.679688 -0.125 102.734375 -0.125 C 103.628906 -0.125 104.609375 -0.0625 105.671875 0.0625 C 106.734375 0.1875 108.328125 0.410156 110.453125 0.734375 C 113.160156 0.160156 115.472656 -0.65625 117.390625 -1.71875 C 119.316406 -2.78125 121.300781 -4.597656 123.34375 -7.171875 C 125.394531 -9.753906 127.75 -13.394531 130.40625 -18.09375 C 133.0625 -22.800781 136.476562 -29.164062 140.65625 -37.1875 C 145.320312 -46.019531 149.960938 -53.257812 154.578125 -58.90625 C 159.203125 -64.550781 164.21875 -69.132812 169.625 -72.65625 C 171.34375 -73.800781 172.875 -74.722656 174.21875 -75.421875 C 175.570312 -76.117188 176.453125 -76.46875 176.859375 -76.46875 C 177.109375 -76.46875 177.234375 -76.34375 177.234375 -76.09375 C 177.234375 -75.851562 176.984375 -75.609375 176.484375 -75.359375 C 174.117188 -73.890625 172.054688 -72.351562 170.296875 -70.75 C 168.535156 -69.15625 166.894531 -67.171875 165.375 -64.796875 C 163.863281 -62.429688 162.332031 -59.53125 160.78125 -56.09375 C 159.226562 -52.65625 157.507812 -48.359375 155.625 -43.203125 C 153.09375 -36.328125 150.394531 -30.332031 147.53125 -25.21875 C 144.664062 -20.101562 141.515625 -15.765625 138.078125 -12.203125 C 134.640625 -8.648438 130.851562 -5.789062 126.71875 -3.625 C 122.59375 -1.457031 117.992188 0.117188 112.921875 1.109375 C 115.941406 1.429688 118.453125 1.65625 120.453125 1.78125 C 122.460938 1.90625 124.285156 1.96875 125.921875 1.96875 C 130.335938 1.96875 134.039062 1.429688 137.03125 0.359375 C 140.019531 -0.703125 142.820312 -2.539062 145.4375 -5.15625 C 146.257812 -5.96875 147.160156 -6.90625 148.140625 -7.96875 C 149.117188 -9.039062 150.097656 -10.164062 151.078125 -11.34375 C 152.066406 -12.53125 152.988281 -13.675781 153.84375 -14.78125 C 154.707031 -15.894531 155.46875 -16.941406 156.125 -17.921875 C 156.445312 -18.492188 156.769531 -18.78125 157.09375 -18.78125 C 157.34375 -18.78125 157.46875 -18.65625 157.46875 -18.40625 C 157.46875 -18.25 157.304688 -17.84375 156.984375 -17.1875 Z M 155.625 -15.34375 "/></g></g></g><g fill="#373333" fill-opacity="1"><g transform="translate(174.871674, 271.445576)"><g/></g></g><g fill="#373333" fill-opacity="1"><g transform="translate(189.967965, 279.078871)"><g><path d="M 20.03125 -82.734375 L 20.03125 0 L 10.015625 0 L 10.015625 -82.734375 Z M 20.03125 -82.734375 "/></g></g></g><g fill="#373333" fill-opacity="1"><g transform="translate(220.022356, 279.078871)"><g><path d="M 55.265625 -62.046875 C 54.773438 -66.140625 52.804688 -69.316406 49.359375 -71.578125 C 45.910156 -73.835938 41.679688 -74.96875 36.671875 -74.96875 C 31.179688 -74.96875 26.765625 -73.664062 23.421875 -71.0625 C 20.085938 -68.46875 18.421875 -65.191406 18.421875 -61.234375 C 18.421875 -58.273438 19.328125 -55.882812 21.140625 -54.0625 C 22.960938 -52.25 25.117188 -50.835938 27.609375 -49.828125 C 30.097656 -48.816406 32.367188 -48.039062 34.421875 -47.5 L 42.8125 -45.234375 C 44.96875 -44.671875 47.367188 -43.890625 50.015625 -42.890625 C 52.671875 -41.898438 55.21875 -40.550781 57.65625 -38.84375 C 60.09375 -37.132812 62.101562 -34.945312 63.6875 -32.28125 C 65.28125 -29.613281 66.078125 -26.335938 66.078125 -22.453125 C 66.078125 -17.984375 64.910156 -13.941406 62.578125 -10.328125 C 60.253906 -6.722656 56.863281 -3.859375 52.40625 -1.734375 C 47.945312 0.390625 42.539062 1.453125 36.1875 1.453125 C 27.300781 1.453125 20.242188 -0.644531 15.015625 -4.84375 C 9.796875 -9.050781 6.945312 -14.546875 6.46875 -21.328125 L 16.796875 -21.328125 C 17.066406 -18.203125 18.125 -15.625 19.96875 -13.59375 C 21.8125 -11.5625 24.15625 -10.050781 27 -9.0625 C 29.84375 -8.082031 32.90625 -7.59375 36.1875 -7.59375 C 40.007812 -7.59375 43.441406 -8.21875 46.484375 -9.46875 C 49.535156 -10.71875 51.945312 -12.46875 53.71875 -14.71875 C 55.5 -16.96875 56.390625 -19.601562 56.390625 -22.625 C 56.390625 -25.363281 55.617188 -27.59375 54.078125 -29.3125 C 52.546875 -31.039062 50.523438 -32.441406 48.015625 -33.515625 C 45.515625 -34.597656 42.8125 -35.546875 39.90625 -36.359375 L 29.734375 -39.265625 C 23.265625 -41.117188 18.144531 -43.769531 14.375 -47.21875 C 10.601562 -50.664062 8.71875 -55.175781 8.71875 -60.75 C 8.71875 -65.382812 9.976562 -69.429688 12.5 -72.890625 C 15.019531 -76.347656 18.410156 -79.039062 22.671875 -80.96875 C 26.941406 -82.894531 31.71875 -83.859375 37 -83.859375 C 42.332031 -83.859375 47.070312 -82.90625 51.21875 -81 C 55.363281 -79.101562 58.65625 -76.515625 61.09375 -73.234375 C 63.53125 -69.953125 64.816406 -66.222656 64.953125 -62.046875 Z M 55.265625 -62.046875 "/></g></g></g><g fill="#373333" fill-opacity="1"><g transform="translate(292.573016, 279.078871)"><g><path d="M 55.265625 -62.046875 C 54.773438 -66.140625 52.804688 -69.316406 49.359375 -71.578125 C 45.910156 -73.835938 41.679688 -74.96875 36.671875 -74.96875 C 31.179688 -74.96875 26.765625 -73.664062 23.421875 -71.0625 C 20.085938 -68.46875 18.421875 -65.191406 18.421875 -61.234375 C 18.421875 -58.273438 19.328125 -55.882812 21.140625 -54.0625 C 22.960938 -52.25 25.117188 -50.835938 27.609375 -49.828125 C 30.097656 -48.816406 32.367188 -48.039062 34.421875 -47.5 L 42.8125 -45.234375 C 44.96875 -44.671875 47.367188 -43.890625 50.015625 -42.890625 C 52.671875 -41.898438 55.21875 -40.550781 57.65625 -38.84375 C 60.09375 -37.132812 62.101562 -34.945312 63.6875 -32.28125 C 65.28125 -29.613281 66.078125 -26.335938 66.078125 -22.453125 C 66.078125 -17.984375 64.910156 -13.941406 62.578125 -10.328125 C 60.253906 -6.722656 56.863281 -3.859375 52.40625 -1.734375 C 47.945312 0.390625 42.539062 1.453125 36.1875 1.453125 C 27.300781 1.453125 20.242188 -0.644531 15.015625 -4.84375 C 9.796875 -9.050781 6.945312 -14.546875 6.46875 -21.328125 L 16.796875 -21.328125 C 17.066406 -18.203125 18.125 -15.625 19.96875 -13.59375 C 21.8125 -11.5625 24.15625 -10.050781 27 -9.0625 C 29.84375 -8.082031 32.90625 -7.59375 36.1875 -7.59375 C 40.007812 -7.59375 43.441406 -8.21875 46.484375 -9.46875 C 49.535156 -10.71875 51.945312 -12.46875 53.71875 -14.71875 C 55.5 -16.96875 56.390625 -19.601562 56.390625 -22.625 C 56.390625 -25.363281 55.617188 -27.59375 54.078125 -29.3125 C 52.546875 -31.039062 50.523438 -32.441406 48.015625 -33.515625 C 45.515625 -34.597656 42.8125 -35.546875 39.90625 -36.359375 L 29.734375 -39.265625 C 23.265625 -41.117188 18.144531 -43.769531 14.375 -47.21875 C 10.601562 -50.664062 8.71875 -55.175781 8.71875 -60.75 C 8.71875 -65.382812 9.976562 -69.429688 12.5 -72.890625 C 15.019531 -76.347656 18.410156 -79.039062 22.671875 -80.96875 C 26.941406 -82.894531 31.71875 -83.859375 37 -83.859375 C 42.332031 -83.859375 47.070312 -82.90625 51.21875 -81 C 55.363281 -79.101562 58.65625 -76.515625 61.09375 -73.234375 C 63.53125 -69.953125 64.816406 -66.222656 64.953125 -62.046875 Z M 55.265625 -62.046875 "/></g></g></g><g fill="#373333" fill-opacity="1"><g transform="translate(365.123675, 279.078871)"><g><path d="M 20.03125 -82.734375 L 20.03125 0 L 10.015625 0 L 10.015625 -82.734375 Z M 20.03125 -82.734375 "/></g></g></g><g fill="#373333" fill-opacity="1"><g transform="translate(395.178066, 279.078871)"><g><path d="M 79.8125 -41.359375 C 79.8125 -32.640625 78.234375 -25.097656 75.078125 -18.734375 C 71.929688 -12.378906 67.613281 -7.476562 62.125 -4.03125 C 56.632812 -0.59375 50.359375 1.125 43.296875 1.125 C 36.242188 1.125 29.96875 -0.59375 24.46875 -4.03125 C 18.976562 -7.476562 14.65625 -12.378906 11.5 -18.734375 C 8.351562 -25.097656 6.78125 -32.640625 6.78125 -41.359375 C 6.78125 -50.085938 8.351562 -57.628906 11.5 -63.984375 C 14.65625 -70.335938 18.976562 -75.238281 24.46875 -78.6875 C 29.96875 -82.132812 36.242188 -83.859375 43.296875 -83.859375 C 50.359375 -83.859375 56.632812 -82.132812 62.125 -78.6875 C 67.613281 -75.238281 71.929688 -70.335938 75.078125 -63.984375 C 78.234375 -57.628906 79.8125 -50.085938 79.8125 -41.359375 Z M 70.125 -41.359375 C 70.125 -48.523438 68.929688 -54.570312 66.546875 -59.5 C 64.160156 -64.425781 60.941406 -68.15625 56.890625 -70.6875 C 52.835938 -73.21875 48.304688 -74.484375 43.296875 -74.484375 C 38.296875 -74.484375 33.765625 -73.21875 29.703125 -70.6875 C 25.648438 -68.15625 22.429688 -64.425781 20.046875 -59.5 C 17.671875 -54.570312 16.484375 -48.523438 16.484375 -41.359375 C 16.484375 -34.203125 17.671875 -28.15625 20.046875 -23.21875 C 22.429688 -18.289062 25.648438 -14.5625 29.703125 -12.03125 C 33.765625 -9.5 38.296875 -8.234375 43.296875 -8.234375 C 48.304688 -8.234375 52.835938 -9.5 56.890625 -12.03125 C 60.941406 -14.5625 64.160156 -18.289062 66.546875 -23.21875 C 68.929688 -28.15625 70.125 -34.203125 70.125 -41.359375 Z M 70.125 -41.359375 "/></g></g></g><g fill="#373333" fill-opacity="1"><g transform="translate(481.786428, 279.078871)"><g><path d="M 75.625 -82.734375 L 75.625 0 L 65.921875 0 L 20.84375 -64.953125 L 20.03125 -64.953125 L 20.03125 0 L 10.015625 0 L 10.015625 -82.734375 L 19.71875 -82.734375 L 64.953125 -17.609375 L 65.765625 -17.609375 L 65.765625 -82.734375 Z M 75.625 -82.734375 "/></g></g></g></svg>